<svg width="385" height="123" viewBox="0 0 385 123" fill="none" xmlns="http://www.w3.org/2000/svg">
<path d="M252.2 122.4C267.3 122.4 279.6 110.1 279.6 94.9V28.3C279.6 13.1 267.3 0.800003 252.2 0.800003H185.3C170.2 0.800003 157.9 13.1 157.9 28.3V94.9C157.9 110.1 170.2 122.4 185.3 122.4H252.2Z" fill="#EC2127"/>
<rect x="157.5" y="0.800003" width="122" height="122" rx="27" fill="#EB2026"/>
<path d="M262 39C260.3 40.9 249.3 61.5 247.7 64.8C245.5 68.8 243.4 70.1 241.8 70.1C238.2 70.1 238.9 64.2 239.5 62.2C242.9 48.9 246.6 44 247.1 43.1C249.7 39.5 247.2 35.2 243.5 35.2C239 35.2 237.3 38 237.3 42.6C236 46.2 233.4 52.5 233 53.1C231.4 56.5 223.3 68.4 220.5 71.1C219.9 71.7 219.1 71.7 219.1 70.9C219.4 62.7 223.9 47.4 223.9 47.4C224 46.9 224.1 46.4 224.1 46C224.1 43.6 223 42 220.5 41.8C218 41.6 216.7 42.8 214.4 45.5C209.4 51.7 203.4 61.1 200.5 65.4C200.2 65.9 199.6 65.7 199.6 65.1C199.6 63.2 205.7 41.7 205.7 41.7C206.2 39.4 204.7 37.6 202.1 37.6C199.2 37.6 193.1 45.9 183.6 59C183.3 59.4 182.6 59.2 182.8 58.8C185 52.9 187.1 45.8 187.1 42.1C187.1 38.6 185.6 36.8 182.6 36.8C175.8 36.8 169.5 44.4 169.5 48C169.5 50 170.7 51.9 172.7 51.9C175.7 51.9 176.4 46.3 178.6 46.3C179 46.3 179 46.8 179 46.9C178.6 50.9 173.7 67.3 171.1 75.1C169.8 79.1 170.6 81.9 173.9 81.9C176.3 81.9 178.6 79.6 180.9 76.1C185.4 69.3 192.1 58.7 192.8 58.7C193 58.7 193.1 58.8 193.1 59C192.2 63.9 188.4 79 195.9 79C197.3 79 198.8 78.6 200.4 77C202.2 75.1 209.2 65.7 213.4 58.2C213.7 57.7 214 58.1 213.9 58.5C213.1 62.4 210.3 73.3 210.3 75.8C210.3 81.6 214.5 81.6 214.7 81.6C222.8 81.6 230.9 67.3 232.3 65.3C229.8 74 233.9 82.6 242.8 79.1C240.3 85.3 236 94.7 236 104.3C236 110.2 239.3 113.1 242.6 113.1C245 113.1 247.2 111.7 247.2 109.3C243.8 102.9 246.9 86.1 255.5 66.7C259.6 62.1 269.7 46.4 269.7 41.5C269.7 38.7 268.1 37.4 266 37.4C264.2 37.1 263.2 37.7 262 39Z" fill="white"/>
<path d="M28.2 77.3H20.6V60.2C20.6 57.8 20.2 55.9 19.4 54.8C18.6 53.6 17.3 53 15.5 53C14.2 53 12.9 53.3 11.8 54C10.7 54.7 9.70002 55.6 9.00002 56.8V77.3H1.40002V46.3H5.70002L8.60002 50.5C9.20002 49.9 10.1 49.2 10.9 48.8C11.7 48.3 12.4 47.9 13.3 47.5C14.1 47.1 15 46.9 15.9 46.6C16.8 46.4 17.8 46.3 18.7 46.3C19.8 46.3 20.8 46.4 21.6 46.7C22.4 46.9 23.2 47.3 23.8 47.7C24.5 48.2 25 48.7 25.5 49.3C26 49.9 26.4 50.7 26.8 51.5C27.4 50.9 28.1 50.3 28.8 49.7C29.6 49.1 30.4 48.5 31.3 48C32.2 47.5 33.2 47.1 34.3 46.8C35.4 46.5 36.5 46.3 37.8 46.3C39.5 46.3 41 46.6 42.2 47.3C43.4 48 44.4 49 45.1 50.2C45.9 51.4 46.4 52.9 46.7 54.6C47 56.3 47.2 58.2 47.2 60.2V77.3H39.6V60.2C39.6 57.8 39.2 55.9 38.5 54.8C37.7 53.6 36.5 53 34.7 53C33.4 53 32.1 53.3 31 53.9C29.9 54.5 28.9 55.5 28 56.8V77.3H28.2Z" fill="#16477F"/>
<path fill-rule="evenodd" clip-rule="evenodd" d="M68.6 76.4C70.1 75.7 71.5 74.9 72.4 73.9L74.3 77.3H79.7V58.6C79.7 54.6 78.6 51.5 76.4 49.4C74.2 47.3 70.9 46.2 66.5 46.2C65.3 46.2 64.1 46.2 62.9 46.4C61.8 46.6 60.7 46.8 59.7 47C59.3368 47.109 58.9868 47.2047 58.65 47.2969C58.0594 47.4585 57.5094 47.609 57 47.8C56.6331 47.9376 56.3083 48.0752 56.0062 48.2031C55.6496 48.3541 55.3248 48.4917 55 48.6L55.9 55.1C56.0548 55.0381 56.2032 54.9783 56.3468 54.9204C57.5953 54.4174 58.4857 54.0587 60.1 53.7C61.8 53.3 63.7 53.1 65.8 53.1C68 53.1 69.6 53.4 70.7 54C71.8 54.6 72.3 55.4 72.3 56.5V58.2H64.7C57.6 58.2 53.1 61.9 53.1 67.7C53.1 69.1 53.3 70.4 53.8 71.6C54.3 72.8 54.9 73.8 55.8 74.7C56.7 75.5 57.7 76.2 58.9 76.7C60.1 77.2 61.5 77.4 63 77.4C65.2 77.4 67 77 68.6 76.4ZM65.6 63.2H72.4V66.7C72 67.3 71.6 67.9 71.1 68.4C70.6 68.9 70 69.4 69.3 69.8C68.6 70.2 67.9 70.5 67.1 70.7C66.3 70.9 65.5 71 64.6 71C63.2 71 62.1 70.6 61.4 70C60.7 69.3 60.3 68.4 60.3 67.2C60.3 66 60.8 65 61.6 64.3C62.4 63.6 63.8 63.2 65.6 63.2Z" fill="#16477F"/>
<path d="M115.6 45.9L103.2 61.4L117.3 77.3H107.7L94.7 61.6V77.3H87.1V34.8H94.7V61.6L106.3 45.9H115.6Z" fill="#16477F"/>
<path fill-rule="evenodd" clip-rule="evenodd" d="M137.5 70.4C136.5 70.6 135.2 70.7 133.9 70.7C133.002 70.7 132.199 70.6045 131.425 70.5124C131.079 70.4713 130.74 70.4309 130.4 70.4C129.3 70.1 128.5 69.6 127.7 69C126.9 68.4 126.3 67.7 125.9 66.8C125.5 65.9 125.2 65 125.1 63.9H146.3C146.354 63.6834 146.379 63.4083 146.406 63.1062C146.429 62.8503 146.454 62.5752 146.5 62.3C146.6 61.7 146.6 61.1 146.6 60.6V60.6C146.6 58.8 146.4 57 145.8 55.3C145.2 53.6 144.4 52.1 143.2 50.8C142.1 49.5 140.6 48.5 138.8 47.7C137 46.9 134.9 46.5 132.4 46.5C129.9 46.5 127.8 46.9 125.9 47.7C124 48.5 122.5 49.7 121.2 51.1C119.9 52.5 119 54.2 118.3 56.1C117.6 58 117.3 60 117.3 62.1C117.3 64.4 117.7 66.5 118.4 68.4C119.1 70.3 120.2 71.9 121.6 73.3C123 74.6 124.8 75.7 126.8 76.4C128.9 77.1 131.2 77.5 133.9 77.5C136.3 77.5 138.5 77.2 140.4 76.6C142.3 76 144.2 75.3 145.5 74.4L144 67.7C143.684 67.963 143.59 68.0047 143.47 68.0578C143.361 68.1057 143.232 68.163 142.9 68.4C142.2 68.9 141.4 69.3 140.5 69.6C139.6 69.9 138.6 70.2 137.5 70.4ZM129.7 53.4C130.5 53.1 131.4 53 132.4 53C133.5 53 134.4 53.1 135.2 53.5C136 53.7 136.7 54.1 137.2 54.6C137.8 55.1 138.1 55.7 138.4 56.3C138.7 56.9 138.8 57.6 138.8 58.3H125.3C125.4 57.6 125.7 56.9 126.1 56.2C126.5 55.5 127 55 127.6 54.5C128.2 54 128.9 53.6 129.7 53.4Z" fill="#16477F"/>
<path d="M287.9 50.7L298.1 38.5H300.3V46.3H309.1V53.1H300.3V65.8C300.3 66.7 300.4 67.4 300.6 68C300.8 68.6 301.1 69.1 301.5 69.4C301.9 69.8 302.3 70 302.8 70.2C303.3 70.3 303.8 70.4 304.3 70.4C305.3 70.4 306.2 70.3 307 70.1C307.8 69.9 308.5 69.7 309.1 69.4V76.2C308.3 76.6 307.4 76.9 306.5 77.1C305.6 77.3 304.5 77.4 303.2 77.4C301.4 77.4 299.8 77.2 298.5 76.7C297.2 76.3 296.1 75.6 295.3 74.8C294.5 74 293.8 73 293.4 71.8C293 70.6 292.8 69.3 292.8 67.8V53.1H287.9V50.7Z" fill="#16477F"/>
<path d="M322.1 52.7C323.1 50.8 325 49.1 326.5 47.9C328 46.8 329.8 46.2 332 46.2C332.7 46.2 333.3 46.2 333.8 46.3C334.3 46.4 334.6 46.4 334.8 46.5C334.8 46.5 334.6 48.3 333.4 53.6C332.9 53.5 332.4 53.4 331.7 53.4C330.3 53.4 329 53.6 327.9 54.1C326.8 54.6 325.8 55.3 325 56.2C324.2 57.1 323.6 58.3 323.2 59.6C322.8 60.9 322.6 62.5 322.6 64.2V77.1H315V46.1H319.9L322.1 52.7Z" fill="#16477F"/>
<path fill-rule="evenodd" clip-rule="evenodd" d="M377.1 47.6C375.5 46.7 373.5 46.3 371.2 46.3C369.3 46.3 367.6 46.6 366.1 47.3C364.6 48 363 49.1 361.9 50.2L359 46.4H354.5V89.9H362.1V73.8L362.2 73.7C363.3 74.9 364.5 75.8 366 76.4C367.5 77 369.3 77.3 371.4 77.3C373.6 77.3 375.5 76.9 377.1 76.1C378.8 75.3 380.1 74.2 381.2 72.8C382.2 71.4 383.1 69.7 383.6 67.9C384.1 66.1 384.4 64.1 384.4 62C384.4 60 384.1 58 383.6 56.1C383.1 54.2 382.3 52.6 381.2 51.1C380.1 49.6 378.7 48.5 377.1 47.6ZM366.6 53.5C367.4 53.2 368.2 53.1 369.2 53.1C370.3 53.1 371.3 53.3 372.3 53.7C373.2 54.2 373.9 54.8 374.6 55.6C375.2 56.4 375.7 57.4 376.1 58.5C376.4 59.6 376.6 60.9 376.6 62.2C376.6 63.5 376.5 64.6 376.2 65.7C375.9 66.7 375.4 67.6 374.8 68.4C374.2 69.2 373.4 69.8 372.5 70.2C371.6 70.6 370.5 70.8 369.2 70.8C368.3 70.8 367.5 70.7 366.8 70.5C366.1 70.3 365.4 70 364.8 69.6C364.2 69.2 363.7 68.8 363.2 68.3C362.7 67.8 362.3 67.3 362 66.8V58C362.2 57.4 362.6 56.8 363 56.2L363 56.2C363.4 55.6 363.9 55.1 364.5 54.6C365.1 54.2 365.8 53.8 366.6 53.5Z" fill="#16477F"/>
<path fill-rule="evenodd" clip-rule="evenodd" d="M338.5 37.5C338.5 35.3 340.3 33.5 342.5 33.5C344.7 33.5 346.5 35.3 346.5 37.5C346.5 39.7 344.7 41.5 342.5 41.5C340.3 41.5 338.5 39.7 338.5 37.5ZM338.7 46.3V77.3H346.3V46.3H338.7Z" fill="#16477F"/>
</svg>
